<?xml version="1.0" standalone="no"?>
<!DOCTYPE svg PUBLIC "-//W3C//DTD SVG 20010904//EN"
 "http://www.w3.org/TR/2001/REC-SVG-20010904/DTD/svg10.dtd">
<svg version="1.0" xmlns="http://www.w3.org/2000/svg"
 width="757.000000pt" height="768.000000pt" viewBox="0 0 757.000000 768.000000"
 preserveAspectRatio="xMidYMid meet">

<g transform="translate(0.000000,768.000000) scale(0.100000,-0.100000)"
fill="#000000" stroke="none">
<path d="M2585 7473 c-220 -148 -510 -250 -828 -293 -115 -15 -424 -12 -546 5
-122 17 -271 54 -366 89 -37 14 -71 24 -75 21 -7 -5 -296 -393 -313 -422 -4
-7 23 -57 66 -120 185 -271 309 -553 368 -839 30 -144 37 -440 15 -594 -62
-424 -268 -847 -620 -1270 -43 -52 -99 -116 -125 -143 l-46 -47 182 -183 181
-182 5 -250 c7 -337 37 -563 113 -840 125 -454 365 -844 699 -1132 437 -378
1048 -612 1816 -697 l126 -13 271 -222 c150 -121 274 -221 277 -221 3 0 128
101 278 224 l273 224 80 7 c426 37 830 138 1178 296 774 350 1265 964 1430
1789 43 211 56 345 62 600 l6 245 174 175 174 175 -91 105 c-430 498 -655 974
-700 1483 -37 409 96 870 366 1272 48 72 89 135 92 142 6 16 -294 433 -311
433 -7 0 -39 -9 -72 -20 -353 -122 -793 -137 -1168 -40 -206 53 -422 146 -575
248 l-74 49 -106 -69 c-407 -265 -822 -375 -1214 -323 -280 37 -534 137 -812
319 l-111 73 -79 -54z m168 -194 c171 -114 389 -212 582 -262 175 -45 239 -52
455 -52 171 0 223 4 315 23 267 53 490 143 713 288 45 30 87 54 92 54 5 0 40
-20 77 -44 195 -125 455 -217 743 -262 83 -13 174 -18 325 -18 238 0 368 15
571 69 l122 32 90 -122 90 -122 -75 -114 c-446 -685 -476 -1504 -83 -2256 103
-198 267 -439 394 -579 25 -29 46 -55 46 -59 0 -4 -64 -73 -142 -155 l-143
-148 -1 -303 c0 -232 -4 -332 -17 -424 -127 -883 -603 -1501 -1428 -1853 -334
-143 -818 -252 -1119 -252 -54 0 -82 -5 -102 -18 -15 -9 -126 -102 -247 -205
-143 -122 -225 -186 -233 -181 -7 4 -110 89 -228 187 -118 99 -222 186 -230
192 -8 7 -75 18 -150 24 -1373 117 -2249 798 -2475 1926 -42 210 -57 379 -56
650 l0 250 -145 154 c-79 84 -144 155 -144 158 0 3 26 35 59 71 418 475 671
1097 671 1652 0 388 -136 828 -360 1169 -34 52 -64 100 -66 106 -3 7 37 65 87
131 51 65 93 120 94 121 0 1 42 -11 92 -27 185 -60 302 -75 568 -74 263 0 356
11 564 63 195 50 416 145 546 235 28 19 52 35 53 35 2 1 45 -26 95 -60z"/>
<path d="M2540 6965 c-190 -96 -432 -168 -681 -201 -216 -29 -618 -18 -848 23
l-33 6 42 -74 c190 -337 286 -674 297 -1054 11 -353 -49 -687 -187 -1038 -23
-60 -40 -110 -39 -111 6 -5 5368 -13 5373 -8 3 2 -11 40 -30 85 -191 446 -250
958 -163 1414 43 223 122 446 230 652 l60 114 -63 -7 c-145 -14 -658 -19 -770
-7 -302 33 -546 109 -785 247 l-33 19 -107 -57 c-687 -360 -1348 -366 -2022
-17 -73 38 -134 69 -135 68 0 0 -48 -25 -106 -54z m2660 -1276 l0 -1139 -140
0 -140 0 0 1208 0 1208 140 -69 140 -69 0 -1139z m-580 1 l0 -1140 -135 0
-135 0 0 1093 0 1093 68 22 c37 12 94 33 127 46 33 13 63 25 68 25 4 1 7 -512
7 -1139z m-1514 1075 c165 -57 330 -92 512 -107 l142 -12 0 -288 0 -288 -410
0 -410 0 0 376 c0 354 1 376 18 371 9 -4 76 -27 148 -52z m-976 -345 l0 -350
-407 0 -408 0 -32 122 c-38 141 -105 314 -174 448 -26 52 -47 95 -46 96 1 1
52 -5 112 -13 164 -22 548 -22 700 0 66 10 147 24 180 31 33 8 63 14 68 15 4
1 7 -156 7 -349z m3495 310 c50 -6 100 -13 113 -16 l22 -4 0 -1080 0 -1080
-135 0 -135 0 0 1101 0 1101 23 -5 c12 -3 63 -11 112 -17z m853 -17 c-2 -5
-26 -55 -54 -113 -97 -198 -164 -407 -206 -637 -20 -113 -23 -158 -22 -393 0
-241 3 -278 26 -410 30 -165 79 -341 138 -497 22 -59 40 -108 40 -110 0 -2
-76 -3 -170 -3 l-170 0 0 1075 0 1075 33 1 c17 1 91 5 162 8 196 11 227 12
223 4z m-2428 -1103 l0 -1060 -125 0 -125 0 0 1049 0 1048 108 10 c59 5 115
10 125 11 16 2 17 -55 17 -1058z m-1920 -705 l0 -355 -490 0 c-269 0 -490 2
-490 4 0 2 15 44 34 93 62 163 120 378 146 541 l12 72 394 0 394 0 0 -355z
m1630 0 l0 -355 -410 0 -410 0 0 355 0 355 410 0 410 0 0 -355z"/>
<path d="M3637 4399 c-135 -32 -213 -135 -240 -317 -14 -92 0 -182 43 -268
111 -226 433 -241 544 -26 18 35 19 33 -68 82 -37 21 -61 29 -64 22 -9 -29
-47 -63 -82 -73 -55 -17 -104 -4 -149 39 -45 43 -61 90 -61 177 0 82 15 127
52 164 64 63 154 62 216 -2 l33 -34 67 35 c37 19 69 37 71 38 2 2 -8 22 -24
44 -35 51 -104 95 -180 115 -65 17 -101 18 -158 4z"/>
<path d="M2570 4030 l0 -370 75 0 75 0 0 150 0 150 110 0 110 0 0 80 0 80
-110 0 -110 0 0 60 0 60 190 0 191 0 -3 78 -3 77 -262 3 -263 2 0 -370z"/>
<path d="M4380 4025 l0 -375 210 0 c233 0 257 5 319 63 42 41 81 121 81 170 0
49 -23 104 -61 143 -21 22 -27 34 -19 39 21 13 50 89 50 133 0 59 -20 102 -69
144 -61 52 -94 58 -315 58 l-196 0 0 -375z m392 198 c24 -21 23 -48 -2 -73
-17 -17 -33 -20 -120 -20 l-100 0 0 55 0 55 102 0 c80 0 105 -3 120 -17z m12
-274 c35 -28 36 -80 1 -114 -23 -23 -31 -25 -130 -25 l-105 0 0 80 0 80 104 0
c89 0 107 -3 130 -21z"/>
<path d="M903 3443 c-14 -167 -8 -505 11 -633 105 -699 469 -1198 1101 -1510
288 -142 615 -238 1005 -296 170 -26 1192 -32 1420 -10 1247 124 2033 764
2204 1796 34 204 43 535 20 708 l-6 42 -2873 0 -2873 0 -9 -97z m2791 -450
c-34 -66 -31 -116 10 -199 l34 -67 -23 -31 c-13 -17 -35 -56 -49 -86 -48 -103
-29 -193 58 -279 45 -44 45 -44 29 -75 -46 -92 -128 -156 -198 -156 -72 0
-166 70 -212 157 -69 130 -70 279 -7 545 l26 107 51 30 c85 48 222 95 293 100
6 1 1 -20 -12 -46z m249 32 c154 -32 264 -92 377 -205 96 -96 141 -166 182
-281 22 -62 52 -219 43 -219 -1 0 -28 34 -60 75 -121 158 -290 290 -437 343
-62 21 -90 25 -180 25 l-108 0 -25 50 c-38 77 -30 149 23 210 19 22 86 23 185
2z m-643 -206 c-21 -68 -50 -263 -50 -327 1 -130 36 -243 101 -316 l31 -35
-27 -35 c-51 -66 -133 -106 -221 -106 l-41 0 -23 76 c-60 204 -24 449 93 625
41 61 134 165 142 158 2 -3 0 -21 -5 -40z m730 -117 c170 -59 342 -203 472
-397 38 -57 40 -63 35 -120 -3 -33 -16 -91 -27 -129 l-22 -69 -45 52 c-69 79
-122 106 -210 106 l-73 0 -22 55 c-12 30 -42 75 -68 101 -70 73 -147 85 -244
38 l-40 -19 -24 23 c-49 44 -82 108 -82 156 0 82 76 216 128 224 50 9 166 -2
222 -21z m-34 -391 c47 -21 78 -60 110 -140 l23 -56 -31 -58 c-86 -161 -303
-285 -588 -336 -194 -35 -175 -37 -237 22 -49 46 -153 187 -153 206 0 5 23 11
51 14 78 9 149 47 199 105 39 45 46 50 60 37 26 -24 87 -45 127 -45 82 1 168
68 233 184 18 31 33 56 33 56 1 0 20 7 42 15 53 19 82 18 131 -4z m311 -216
c56 -24 100 -61 128 -110 31 -51 28 -59 -49 -162 -150 -199 -439 -319 -686
-283 -93 13 -209 51 -274 89 l-49 29 49 7 c177 25 353 80 470 146 92 53 198
155 238 230 16 29 34 57 40 61 19 13 95 9 133 -7z"/>
</g>
</svg>
